<?xml version="1.0" encoding="utf-8"?>
<!-- Generator: Adobe Illustrator 24.0.1, SVG Export Plug-In . SVG Version: 6.00 Build 0)  -->
<svg version="1.1" id="Layer_1" xmlns="http://www.w3.org/2000/svg" xmlns:xlink="http://www.w3.org/1999/xlink" x="0px" y="0px"
	 viewBox="0 0 1954.03 1713.46" style="enable-background:new 0 0 1954.03 1713.46;" xml:space="preserve">
<style type="text/css">
	.st0{fill:#B2CCFF;}
	.st1{opacity:0.32;fill:#B2CCFF;enable-background:new    ;}
</style>
<path class="st0" d="M1926.03,1582l-0.21-180.2h-1899l5.21,69.2h-20L6.32,30.15l2.1-2.71c1.58-2.04,2.54-3.27,2.89-3.71l1.85-2.27
	l2.61-0.96c0.58-0.21,14.42-5.18,38.25-10.09C67.98,7.54,82.6,5.25,97.47,3.61c18.67-2.05,37.66-3.09,56.45-3.09
	c48.55,0.01,96.77,6.71,143.41,19.92c13.5,3.82,27.06,8.25,40.28,13.16c13.94,5.17,27.88,11.01,41.44,17.35
	c14.24,6.66,28.47,14.07,42.28,22.01c14.43,8.3,28.84,17.42,42.81,27.13c18.84,13.08,37.81,25.49,56.38,36.88
	c18.14,11.13,36.4,21.59,54.27,31.1c17.44,9.27,34.97,17.88,52.1,25.56c16.73,7.51,33.52,14.34,49.88,20.3
	c62.05,22.6,121.44,34.06,176.5,34.06c46.19,0,89.24-8.05,127.97-23.92c34.31-14.06,74.72-30.12,120.1-42.71
	c11.84-3.29,23.68-6.23,35.18-8.76c12.44-2.73,24.88-5.06,37-6.92c12.95-1.99,25.96-3.52,38.68-4.55
	c13.44-1.08,26.98-1.63,40.24-1.63c11.14,0,22.37,0.39,33.36,1.16c11.42,0.8,22.93,2.03,34.21,3.66
	c11.67,1.69,23.44,3.86,34.98,6.44c11.92,2.67,23.92,5.87,35.67,9.49c12.11,3.74,24.32,8.05,36.28,12.81
	c12.27,4.88,24.65,10.4,36.81,16.4c12.45,6.14,24.99,12.95,37.26,20.24c12.57,7.46,25.24,15.65,37.65,24.34
	c10.52,7.37,21.29,14.31,32,20.64c10.34,6.11,20.91,11.82,31.43,16.96c10.13,4.96,20.48,9.52,30.76,13.57
	c9.87,3.89,19.95,7.41,29.98,10.47c18.65,5.7,37.89,10,57.19,12.78c17.41,2.49,35.17,3.76,52.78,3.77
	c33.33-0.02,66.55-4.46,98.71-13.21c20.78-5.57,41.11-13.11,60.47-22.41l14.33-6.89L1946.03,1567l-13,12L1926.03,1582z"/>
<path id="Subtraction_8" class="st0" d="M1933.03,1591v-12l2.79-187.2h-1919l6.21,90.2l-7,16L16.32,33.58c1.55-2,2.5-3.21,2.83-3.64
	l0.02-0.02c0.14-0.05,13.68-4.92,36.87-9.7C69.69,17.4,84,15.16,98.57,13.55c18.41-2.02,36.91-3.03,55.42-3.03
	c47.55,0.01,94.86,6.59,140.61,19.54c13.25,3.75,26.55,8.09,39.53,12.91c13.67,5.07,27.36,10.8,40.68,17.04
	c13.98,6.54,27.96,13.82,41.54,21.62c14.2,8.16,28.36,17.14,42.09,26.67c19,13.19,38.13,25.71,56.86,37.19
	c18.34,11.25,36.78,21.81,54.8,31.4c17.65,9.39,35.38,18.08,52.7,25.86c16.95,7.61,33.96,14.53,50.56,20.58
	c63.14,23,123.68,34.67,179.92,34.67c47.49,0,91.82-8.3,131.76-24.67c34.05-13.96,74.14-29.89,118.98-42.33
	c11.67-3.24,23.32-6.14,34.65-8.62c12.21-2.68,24.45-4.97,36.37-6.8c12.72-1.96,25.5-3.46,37.97-4.46c13.2-1.06,26.47-1.6,39.44-1.6
	c10.91,0,21.9,0.38,32.67,1.14c11.18,0.78,22.45,1.99,33.48,3.58c11.43,1.65,22.95,3.77,34.22,6.3c11.66,2.61,23.4,5.74,34.91,9.29
	c11.87,3.66,23.82,7.89,35.53,12.55c12.06,4.8,24.2,10.21,36.09,16.07c12.23,6.03,24.53,12.72,36.58,19.87
	c12.37,7.35,24.83,15.4,37.02,23.93c10.73,7.51,21.72,14.6,32.65,21.06c10.57,6.24,21.38,12.08,32.13,17.33
	c10.37,5.07,20.96,9.75,31.48,13.89c10.13,3.99,20.46,7.6,30.72,10.73c19.2,5.86,38.82,10.25,58.68,13.11
	c17.95,2.57,36.06,3.86,54.2,3.87c34.23-0.02,68.31-4.58,101.34-13.56c21.4-5.74,42.21-13.45,62.18-23.04L1936.03,1579L1933.03,1591
	z"/>
<path class="st1" d="M6.32,1295.1V29.93l6.99-2.21c47.47-15,88.05-21.69,131.58-21.69c30.65,0,60.57,3.07,99.49,7.41
	c12.73,1.43,25.92,4.99,39.88,8.76c7.1,1.92,14.43,3.9,22.27,5.77c3.97,0.94,8.27,2.7,12.83,4.56c4.39,1.79,11.02,4.5,13.69,4.5
	c24.9-1.96,49.26-2.96,72.44-2.96c95.52,0,177.13,16.77,242.57,49.83c43.67,22.07,89.58,38.53,136.43,48.93
	c42.13,9.35,86.38,14.09,131.53,14.09c130.43,0,247.04-38.07,340.73-68.67c29.56-9.65,57.48-18.77,81.58-25.14
	c51.44-13.6,104.65-20.49,158.13-20.49c68.62,0,135.71,11.47,199.4,34.1c73.86,26.24,143.14,67.59,205.89,122.88l0.57,0.5l0.4,0.48
	c1.36,1.47,9.54,9.34,40.42,38.17l3.17,2.96V1295.1H6.32z"/>
<path id="Intersection_21" class="st1" d="M16.32,1279.1V31.26C105.55,3.07,159.34,8.03,243.26,17.39
	c18.06,2.03,37.29,8.67,60.94,14.31c8.4,2,22.13,9.9,29.69,9.3c109.42-8.64,219.95,0.5,309.65,45.83
	c282.1,142.53,552.09,8.35,697.33-30.04s360.98-35.97,554.26,134.33c1.69,2.02,22.49,21.52,41.17,38.96V1279.1H16.32z"/>
<path class="st1" d="M456.17,1713.09c-68.62,0-135.71-11.47-199.4-34.1c-73.86-26.24-143.14-67.59-205.9-122.89l-0.56-0.5
	l-0.41-0.48c-1.37-1.48-9.56-9.35-40.41-38.17l-3.17-2.96V450.62h1940v1189.25l-6.97,2.22c-99.81,31.73-248.88,69.56-392.24,69.56
	c-95.48,0-177.08-16.77-242.53-49.84c-43.67-22.07-89.58-38.53-136.43-48.93c-42.13-9.35-86.38-14.09-131.53-14.09
	c-130.43,0-247.04,38.07-340.73,68.67c-29.56,9.65-57.48,18.77-81.58,25.14C562.86,1706.2,509.66,1713.09,456.17,1713.09z"/>
<path id="Intersection_23" class="st1" d="M1936.32,466.62v1171.94c-166.16,52.83-441.38,114.23-627.23,20.32
	c-282.1-142.53-552.08-8.35-697.33,30.05S250.77,1724.9,57.49,1554.6c-1.69-2.02-22.49-21.51-41.17-38.96V466.62H1936.32z"/>
<path class="st0" d="M667.54,1644.31c-9.01,0-18.16-0.39-27.19-1.17c-9.37-0.81-18.9-2.05-28.33-3.7
	c-9.72-1.7-19.65-3.88-29.52-6.48c-10.15-2.68-20.51-5.89-30.8-9.53c-10.57-3.74-21.39-8.06-32.16-12.83
	c-11.03-4.89-22.34-10.4-33.61-16.38c-11.56-6.14-23.4-12.93-35.16-20.19c-12.06-7.44-24.44-15.6-36.8-24.25
	c-10.53-7.37-21.29-14.32-32-20.64c-10.34-6.11-20.91-11.81-31.44-16.96c-10.13-4.95-20.48-9.52-30.76-13.57
	c-9.86-3.89-19.95-7.41-29.98-10.47c-18.65-5.7-37.89-10-57.19-12.78c-17.41-2.49-35.17-3.76-52.78-3.77
	c-33.33,0.01-66.55,4.46-98.72,13.22c-20.77,5.57-41.1,13.11-60.46,22.41l-14.33,6.89V1298.8h1940v278.19l-4.37,2.98
	c-6.58,4.48-31.01,20.24-69.01,34.73c-21.61,8.23-44.06,14.73-66.72,19.33c-13.25,2.69-26.78,4.76-40.2,6.17
	c-14.65,1.53-29.55,2.31-44.28,2.31c-19.58-0.01-39.34-1.37-58.73-4.03c-21.39-2.96-42.75-7.49-63.49-13.46
	c-11.1-3.19-22.31-6.85-33.3-10.89c-11.36-4.17-22.88-8.88-34.23-13.99c-11.73-5.29-23.53-11.13-35.07-17.35
	c-11.95-6.44-24-13.48-35.81-20.94c-11.6-7.32-23.32-14.22-34.85-20.5c-11.25-6.14-22.65-11.88-33.88-17.06
	c-10.94-5.05-22.01-9.7-32.92-13.84c-10.6-4.02-21.36-7.67-31.97-10.84c-10.29-3.07-20.73-5.78-31.04-8.06
	c-9.99-2.2-20.12-4.05-30.12-5.49c-9.68-1.4-19.51-2.45-29.23-3.14c-9.4-0.66-18.93-1-28.35-1c-104.48,0-191.55,40.79-261.52,73.57
	l-0.21,0.1c-18.98,8.89-36.9,17.29-53.64,24.15c-10.32,4.23-20.92,8.76-31.16,13.14l-0.19,0.08c-28.96,12.4-58.92,25.21-90.83,34.93
	c-16.23,5.01-32.99,9-49.78,11.86c-8.84,1.48-17.71,2.61-26.4,3.36C685.88,1643.91,676.63,1644.31,667.54,1644.31z"/>
<path id="Subtraction_7" class="st0" d="M16.32,1308.8h1920v262.9c-6.35,4.33-29.96,19.55-66.95,33.65
	c-21.16,8.06-42.95,14.37-65.14,18.87c-12.93,2.62-26.14,4.65-39.25,6.03c-14.36,1.5-28.79,2.26-43.23,2.26
	c-19.19-0.01-38.36-1.33-57.37-3.94c-20.98-2.9-41.73-7.3-62.09-13.16c-10.85-3.11-21.83-6.7-32.62-10.66
	c-11.17-4.1-22.47-8.72-33.57-13.72c-11.47-5.17-23.06-10.9-34.43-17.03c-11.74-6.32-23.59-13.25-35.22-20.59
	c-11.76-7.42-23.67-14.43-35.4-20.82c-11.45-6.25-23.05-12.09-34.48-17.36c-11.15-5.14-22.44-9.89-33.56-14.11
	c-10.84-4.11-21.82-7.83-32.66-11.07c-10.54-3.15-21.22-5.92-31.75-8.24c-10.22-2.25-20.6-4.15-30.85-5.62
	c-9.92-1.43-20-2.52-29.95-3.22c-9.63-0.68-19.4-1.03-29.06-1.03c-106.71,0-194.9,41.32-265.76,74.51l-0.01,0.01
	c-18.94,8.87-36.83,17.25-53.38,24.04c-10.45,4.28-21.14,8.85-31.47,13.28l-0.02,0.01c-28.74,12.3-58.46,25.01-89.81,34.55
	c-15.91,4.91-32.13,8.77-48.55,11.57c-8.55,1.43-17.16,2.53-25.58,3.26c-8.85,0.77-17.8,1.16-26.61,1.16
	c-8.73,0-17.59-0.38-26.34-1.14c-9.07-0.78-18.31-1.99-27.46-3.58c-9.46-1.65-19.11-3.77-28.69-6.3
	c-9.88-2.61-19.98-5.73-30.02-9.29c-10.33-3.66-20.91-7.88-31.45-12.55c-10.81-4.79-21.91-10.2-32.97-16.07
	c-11.34-6.02-22.98-12.7-34.6-19.87c-11.89-7.33-24.11-15.39-36.32-23.93c-10.73-7.51-21.72-14.6-32.65-21.06
	c-10.57-6.24-21.38-12.08-32.13-17.33c-10.37-5.07-20.96-9.74-31.49-13.89c-10.13-3.99-20.46-7.6-30.72-10.73
	c-19.2-5.86-38.81-10.25-58.68-13.11c-17.95-2.57-36.06-3.86-54.2-3.87c-34.23,0.02-68.31,4.58-101.35,13.57
	c-21.39,5.74-42.2,13.45-62.16,23.04V1308.8z"/>
</svg>
